<mxfile host="app.diagrams.net" modified="2022-08-02T04:20:59.599Z" agent="5.0 (Windows NT 10.0; Win64; x64) AppleWebKit/537.36 (KHTML, like Gecko) Chrome/103.0.5060.134 Safari/537.36" etag="yCcSByhZfUdFui8rpMwu" version="20.2.2" type="github">
  <diagram id="y-_ptR3bU_7B8mOg0E7a" name="Page-1">
    <mxGraphModel dx="850" dy="437" grid="1" gridSize="10" guides="1" tooltips="1" connect="1" arrows="1" fold="1" page="1" pageScale="1" pageWidth="850" pageHeight="1100" math="0" shadow="0">
      <root>
        <mxCell id="0" />
        <mxCell id="1" parent="0" />
        <mxCell id="uMBwCkYHm1cEVfQfEcAB-1" value="" style="whiteSpace=wrap;html=1;aspect=fixed;" vertex="1" parent="1">
          <mxGeometry x="210" y="120" width="140" height="140" as="geometry" />
        </mxCell>
        <mxCell id="uMBwCkYHm1cEVfQfEcAB-12" value="" style="rounded=0;whiteSpace=wrap;html=1;" vertex="1" parent="1">
          <mxGeometry x="220" y="145" width="120" height="60" as="geometry" />
        </mxCell>
        <mxCell id="uMBwCkYHm1cEVfQfEcAB-3" value="" style="whiteSpace=wrap;html=1;aspect=fixed;" vertex="1" parent="1">
          <mxGeometry x="570" y="120" width="140" height="140" as="geometry" />
        </mxCell>
        <mxCell id="uMBwCkYHm1cEVfQfEcAB-11" value="" style="rounded=0;whiteSpace=wrap;html=1;" vertex="1" parent="1">
          <mxGeometry x="590.5" y="205" width="101" height="35" as="geometry" />
        </mxCell>
        <mxCell id="uMBwCkYHm1cEVfQfEcAB-10" value="" style="rounded=0;whiteSpace=wrap;html=1;" vertex="1" parent="1">
          <mxGeometry x="580" y="130" width="120" height="60" as="geometry" />
        </mxCell>
        <mxCell id="uMBwCkYHm1cEVfQfEcAB-4" value="SQS&lt;br&gt;Simple Queue Service" style="text;html=1;resizable=0;autosize=1;align=center;verticalAlign=middle;points=[];fillColor=none;strokeColor=none;rounded=0;" vertex="1" parent="1">
          <mxGeometry x="210" y="80" width="140" height="40" as="geometry" />
        </mxCell>
        <mxCell id="uMBwCkYHm1cEVfQfEcAB-5" value="Lambda Function" style="text;html=1;resizable=0;autosize=1;align=center;verticalAlign=middle;points=[];fillColor=none;strokeColor=none;rounded=0;" vertex="1" parent="1">
          <mxGeometry x="580" y="85" width="120" height="30" as="geometry" />
        </mxCell>
        <mxCell id="uMBwCkYHm1cEVfQfEcAB-6" value="Credit Transaction &lt;br&gt;Queue" style="text;html=1;resizable=0;autosize=1;align=center;verticalAlign=middle;points=[];fillColor=none;strokeColor=none;rounded=0;" vertex="1" parent="1">
          <mxGeometry x="220" y="160" width="120" height="40" as="geometry" />
        </mxCell>
        <mxCell id="uMBwCkYHm1cEVfQfEcAB-7" value="Transaction &lt;br&gt;Processing &lt;br&gt;Function" style="text;html=1;resizable=0;autosize=1;align=center;verticalAlign=middle;points=[];fillColor=none;strokeColor=none;rounded=0;" vertex="1" parent="1">
          <mxGeometry x="600" y="130" width="90" height="60" as="geometry" />
        </mxCell>
        <mxCell id="uMBwCkYHm1cEVfQfEcAB-8" value="Handler" style="text;html=1;resizable=0;autosize=1;align=center;verticalAlign=middle;points=[];fillColor=none;strokeColor=none;rounded=0;" vertex="1" parent="1">
          <mxGeometry x="606" y="205" width="70" height="30" as="geometry" />
        </mxCell>
        <mxCell id="uMBwCkYHm1cEVfQfEcAB-9" value="" style="endArrow=classic;html=1;rounded=0;" edge="1" parent="1" target="uMBwCkYHm1cEVfQfEcAB-8">
          <mxGeometry width="50" height="50" relative="1" as="geometry">
            <mxPoint x="640" y="190" as="sourcePoint" />
            <mxPoint x="450" y="220" as="targetPoint" />
          </mxGeometry>
        </mxCell>
        <mxCell id="uMBwCkYHm1cEVfQfEcAB-13" value="Actor" style="shape=umlActor;verticalLabelPosition=bottom;verticalAlign=top;html=1;" vertex="1" parent="1">
          <mxGeometry x="30" y="150" width="30" height="60" as="geometry" />
        </mxCell>
        <mxCell id="uMBwCkYHm1cEVfQfEcAB-14" value="" style="endArrow=classic;html=1;rounded=0;entryX=-0.009;entryY=0.435;entryDx=0;entryDy=0;entryPerimeter=0;" edge="1" parent="1" source="uMBwCkYHm1cEVfQfEcAB-13" target="uMBwCkYHm1cEVfQfEcAB-1">
          <mxGeometry width="50" height="50" relative="1" as="geometry">
            <mxPoint x="320" y="270" as="sourcePoint" />
            <mxPoint x="370" y="220" as="targetPoint" />
          </mxGeometry>
        </mxCell>
        <mxCell id="uMBwCkYHm1cEVfQfEcAB-15" value="" style="endArrow=classic;html=1;rounded=0;entryX=1.009;entryY=0.422;entryDx=0;entryDy=0;entryPerimeter=0;exitX=-0.008;exitY=0.415;exitDx=0;exitDy=0;exitPerimeter=0;" edge="1" parent="1" source="uMBwCkYHm1cEVfQfEcAB-3" target="uMBwCkYHm1cEVfQfEcAB-1">
          <mxGeometry width="50" height="50" relative="1" as="geometry">
            <mxPoint x="320" y="270" as="sourcePoint" />
            <mxPoint x="370" y="220" as="targetPoint" />
          </mxGeometry>
        </mxCell>
      </root>
    </mxGraphModel>
  </diagram>
</mxfile>
